G04*
G04 #@! TF.GenerationSoftware,Altium Limited,Altium Designer,25.5.2 (35)*
G04*
G04 Layer_Color=16711935*
%FSLAX44Y44*%
%MOMM*%
G71*
G04*
G04 #@! TF.SameCoordinates,602AA96B-E86A-4CCD-AD49-3003D2A26B06*
G04*
G04*
G04 #@! TF.FilePolarity,Positive*
G04*
G01*
G75*
%ADD10C,0.1000*%
D10*
X104019Y359944D02*
G03*
X90359Y356283I-5000J-8660D01*
G01*
X50359Y287001D02*
G03*
X54019Y273341I8660J-5000D01*
G01*
X75000Y249681D02*
G03*
X71340Y263341I-8660J5000D01*
G01*
X121340Y349944D02*
G03*
X135000Y353604I5000J8660D01*
G01*
X535000Y1046424D02*
G03*
X531340Y1060084I-8660J5000D01*
G01*
X510359Y1083745D02*
G03*
X514019Y1070084I8660J-5000D01*
G01*
X581340Y1146687D02*
G03*
X595000Y1150347I5000J8660D01*
G01*
X564019Y1156687D02*
G03*
X550359Y1153027I-5000J-8660D01*
G01*
X104019Y359944D02*
X121340Y349944D01*
X50359Y287001D02*
X90359Y356283D01*
X54019Y273341D02*
X71340Y263341D01*
X60000Y0D02*
X760000D01*
X60000D02*
Y223700D01*
X75000Y249681D01*
X760000Y0D02*
Y1176328D01*
X135000Y353604D02*
X535000Y1046424D01*
X514019Y1070084D02*
X531340Y1060084D01*
X510359Y1083745D02*
X550359Y1153027D01*
X564019Y1156687D02*
X581340Y1146687D01*
X595000Y1150347D02*
X610000Y1176328D01*
X760000D01*
M02*
