G04*
G04 #@! TF.GenerationSoftware,Altium Limited,Altium Designer,25.5.2 (35)*
G04*
G04 Layer_Physical_Order=1*
G04 Layer_Color=255*
%FSLAX44Y44*%
%MOMM*%
G71*
G04*
G04 #@! TF.SameCoordinates,5F4A0728-234C-4093-BECC-1529F3DAD170*
G04*
G04*
G04 #@! TF.FilePolarity,Positive*
G04*
G01*
G75*
G36*
X754902Y5098D02*
X65098D01*
Y222334D01*
X79415Y247132D01*
X79456Y247252D01*
X79535Y247352D01*
X79983Y248225D01*
X80087Y248588D01*
X80276Y248915D01*
X80906Y250771D01*
X80971Y251269D01*
X81133Y251745D01*
X81389Y253688D01*
X81356Y254189D01*
X81421Y254687D01*
X81293Y256643D01*
X81163Y257128D01*
X81130Y257629D01*
X80623Y259523D01*
X80401Y259973D01*
X80271Y260458D01*
X79404Y262216D01*
X79098Y262614D01*
X78876Y263065D01*
X77683Y264620D01*
X77305Y264951D01*
X77000Y265349D01*
X75526Y266642D01*
X75199Y266831D01*
X74927Y267094D01*
X74103Y267625D01*
X73984Y267672D01*
X73889Y267756D01*
X56568Y277756D01*
X56568Y277756D01*
X56150Y277997D01*
X55424Y278634D01*
X54836Y279400D01*
X54409Y280266D01*
X54159Y281199D01*
X54096Y282162D01*
X54222Y283120D01*
X54532Y284034D01*
X54774Y284452D01*
X54774Y284452D01*
X94774Y353734D01*
X94774Y353734D01*
X95015Y354152D01*
X95652Y354879D01*
X96418Y355466D01*
X97284Y355894D01*
X98217Y356143D01*
X99180Y356207D01*
X100138Y356081D01*
X101052Y355770D01*
X101470Y355529D01*
D01*
X118791Y345529D01*
X118911Y345488D01*
X119011Y345409D01*
X119883Y344961D01*
X120247Y344857D01*
X120574Y344668D01*
X122430Y344038D01*
X122928Y343972D01*
X123404Y343811D01*
X125347Y343555D01*
X125848Y343588D01*
X126346Y343522D01*
X128302Y343650D01*
X128787Y343780D01*
X129288Y343813D01*
X131182Y344321D01*
X131632Y344543D01*
X132117Y344673D01*
X133875Y345540D01*
X134273Y345845D01*
X134724Y346067D01*
X136279Y347261D01*
X136610Y347638D01*
X137008Y347944D01*
X138301Y349418D01*
X138490Y349745D01*
X138753Y350017D01*
X139284Y350841D01*
X139331Y350960D01*
X139415Y351055D01*
X539415Y1043875D01*
X539456Y1043995D01*
X539535Y1044095D01*
X539983Y1044968D01*
X540087Y1045331D01*
X540276Y1045658D01*
X540906Y1047515D01*
X540971Y1048012D01*
X541133Y1048488D01*
X541389Y1050432D01*
X541356Y1050932D01*
X541421Y1051430D01*
X541293Y1053387D01*
X541163Y1053871D01*
X541130Y1054372D01*
X540623Y1056266D01*
X540401Y1056716D01*
X540271Y1057201D01*
X539404Y1058960D01*
X539098Y1059358D01*
X538876Y1059808D01*
X537683Y1061363D01*
X537305Y1061694D01*
X537000Y1062093D01*
X535526Y1063385D01*
X535199Y1063574D01*
X534927Y1063837D01*
X534103Y1064369D01*
X533984Y1064415D01*
X533889Y1064499D01*
X516568Y1074499D01*
X516568Y1074499D01*
X516150Y1074741D01*
X515424Y1075377D01*
X514836Y1076143D01*
X514409Y1077010D01*
X514159Y1077942D01*
X514096Y1078906D01*
X514222Y1079863D01*
X514532Y1080778D01*
X514774Y1081196D01*
X514774Y1081196D01*
X554774Y1150478D01*
X554774Y1150478D01*
X555015Y1150896D01*
X555652Y1151622D01*
X556418Y1152210D01*
X557284Y1152637D01*
X558217Y1152887D01*
X559180Y1152950D01*
X560138Y1152824D01*
X561052Y1152514D01*
X561470Y1152272D01*
D01*
X578791Y1142272D01*
X578911Y1142231D01*
X579011Y1142152D01*
X579883Y1141704D01*
X580247Y1141600D01*
X580574Y1141411D01*
X582430Y1140781D01*
X582928Y1140715D01*
X583404Y1140554D01*
X585347Y1140298D01*
X585848Y1140331D01*
X586346Y1140266D01*
X588302Y1140394D01*
X588787Y1140524D01*
X589288Y1140557D01*
X591182Y1141064D01*
X591632Y1141286D01*
X592117Y1141416D01*
X593875Y1142283D01*
X594273Y1142589D01*
X594724Y1142811D01*
X596279Y1144004D01*
X596610Y1144382D01*
X597008Y1144687D01*
X598301Y1146161D01*
X598490Y1146488D01*
X598753Y1146760D01*
X599285Y1147585D01*
X599331Y1147703D01*
X599415Y1147798D01*
X612943Y1171230D01*
X754902D01*
Y5098D01*
D02*
G37*
%LPC*%
G36*
X711970Y75098D02*
X708030D01*
X707538Y75000D01*
X707036D01*
X703172Y74231D01*
X702708Y74039D01*
X702215Y73941D01*
X698576Y72434D01*
X698158Y72155D01*
X697694Y71963D01*
X694418Y69774D01*
X694063Y69419D01*
X693646Y69140D01*
X690860Y66354D01*
X690581Y65937D01*
X690226Y65581D01*
X688037Y62306D01*
X687845Y61842D01*
X687566Y61424D01*
X686059Y57785D01*
X685961Y57292D01*
X685769Y56828D01*
X685000Y52964D01*
Y52462D01*
X684902Y51970D01*
Y50000D01*
Y48030D01*
X685000Y47538D01*
Y47036D01*
X685769Y43172D01*
X685961Y42708D01*
X686059Y42215D01*
X687566Y38575D01*
X687845Y38158D01*
X688037Y37694D01*
X690226Y34418D01*
X690581Y34063D01*
X690860Y33646D01*
X693646Y30860D01*
X694063Y30581D01*
X694418Y30226D01*
X697694Y28037D01*
X698158Y27845D01*
X698576Y27566D01*
X702215Y26059D01*
X702708Y25961D01*
X703172Y25769D01*
X707036Y25000D01*
X707538D01*
X708030Y24902D01*
X711970D01*
X712462Y25000D01*
X712964D01*
X716828Y25769D01*
X717292Y25961D01*
X717785Y26059D01*
X721424Y27566D01*
X721842Y27845D01*
X722306Y28037D01*
X725582Y30226D01*
X725937Y30581D01*
X726354Y30860D01*
X729140Y33646D01*
X729419Y34063D01*
X729774Y34418D01*
X731963Y37694D01*
X732155Y38158D01*
X732434Y38575D01*
X733941Y42215D01*
X734039Y42708D01*
X734231Y43172D01*
X735000Y47036D01*
Y47538D01*
X735098Y48030D01*
Y50000D01*
Y51970D01*
X735000Y52462D01*
Y52964D01*
X734231Y56828D01*
X734039Y57292D01*
X733941Y57785D01*
X732434Y61424D01*
X732155Y61842D01*
X731963Y62306D01*
X729774Y65581D01*
X729419Y65936D01*
X729140Y66354D01*
X726354Y69140D01*
X725937Y69419D01*
X725582Y69774D01*
X722306Y71963D01*
X721842Y72155D01*
X721424Y72434D01*
X717785Y73941D01*
X717292Y74039D01*
X716828Y74231D01*
X712964Y75000D01*
X712462D01*
X711970Y75098D01*
D02*
G37*
G36*
X111970D02*
X108030D01*
X107538Y75000D01*
X107036D01*
X103172Y74231D01*
X102708Y74039D01*
X102215Y73941D01*
X98575Y72434D01*
X98158Y72155D01*
X97694Y71963D01*
X94418Y69774D01*
X94063Y69419D01*
X93646Y69140D01*
X90860Y66354D01*
X90581Y65937D01*
X90226Y65581D01*
X88037Y62306D01*
X87845Y61842D01*
X87566Y61424D01*
X86059Y57785D01*
X85961Y57292D01*
X85769Y56828D01*
X85000Y52964D01*
Y52462D01*
X84902Y51970D01*
Y50000D01*
Y48030D01*
X85000Y47538D01*
Y47036D01*
X85769Y43172D01*
X85961Y42708D01*
X86059Y42215D01*
X87566Y38575D01*
X87845Y38158D01*
X88037Y37694D01*
X90226Y34418D01*
X90581Y34063D01*
X90860Y33646D01*
X93646Y30860D01*
X94063Y30581D01*
X94418Y30226D01*
X97694Y28037D01*
X98158Y27845D01*
X98575Y27566D01*
X102215Y26059D01*
X102708Y25961D01*
X103172Y25769D01*
X107036Y25000D01*
X107538D01*
X108030Y24902D01*
X111970D01*
X112462Y25000D01*
X112964D01*
X116828Y25769D01*
X117292Y25961D01*
X117785Y26059D01*
X121424Y27566D01*
X121842Y27845D01*
X122306Y28037D01*
X125582Y30226D01*
X125937Y30581D01*
X126354Y30860D01*
X129140Y33646D01*
X129419Y34063D01*
X129774Y34418D01*
X131963Y37694D01*
X132155Y38158D01*
X132434Y38575D01*
X133941Y42215D01*
X134039Y42708D01*
X134231Y43172D01*
X135000Y47036D01*
Y47538D01*
X135098Y48030D01*
Y50000D01*
Y51970D01*
X135000Y52462D01*
Y52964D01*
X134231Y56828D01*
X134039Y57292D01*
X133941Y57785D01*
X132434Y61424D01*
X132155Y61842D01*
X131963Y62306D01*
X129774Y65581D01*
X129419Y65936D01*
X129140Y66354D01*
X126354Y69140D01*
X125937Y69419D01*
X125582Y69774D01*
X122306Y71963D01*
X121842Y72155D01*
X121425Y72434D01*
X117785Y73941D01*
X117292Y74039D01*
X116828Y74231D01*
X112964Y75000D01*
X112462D01*
X111970Y75098D01*
D02*
G37*
%LPD*%
M02*
