G04*
G04 #@! TF.GenerationSoftware,Altium Limited,Altium Designer,25.5.2 (35)*
G04*
G04 Layer_Color=16711935*
%FSLAX44Y44*%
%MOMM*%
G71*
G04*
G04 #@! TF.SameCoordinates,589546F1-E627-42EA-9645-3D02E78E53F3*
G04*
G04*
G04 #@! TF.FilePolarity,Negative*
G04*
G01*
G75*
G36*
X71340Y263341D02*
X54019Y273341D01*
X53166Y273834D01*
X51685Y275132D01*
X50486Y276695D01*
X49615Y278462D01*
X49105Y280364D01*
X48976Y282330D01*
X49233Y284283D01*
X49866Y286148D01*
X50359Y287001D01*
X50359Y287001D01*
X90359Y356283D01*
X90851Y357136D01*
X92150Y358617D01*
X93713Y359816D01*
X95480Y360688D01*
X97382Y361197D01*
X99348Y361326D01*
X101301Y361069D01*
X103166Y360436D01*
X104019Y359944D01*
X104019Y359944D01*
X121340Y349944D01*
X71340Y263341D01*
D02*
G37*
G36*
X531340Y1060084D02*
X514019Y1070084D01*
X513166Y1070577D01*
X511685Y1071876D01*
X510486Y1073438D01*
X509615Y1075205D01*
X509105Y1077108D01*
X508976Y1079073D01*
X509233Y1081026D01*
X509866Y1082892D01*
X510359Y1083745D01*
X510359Y1083745D01*
X550359Y1153027D01*
X550851Y1153880D01*
X552150Y1155361D01*
X553713Y1156560D01*
X555480Y1157431D01*
X557382Y1157941D01*
X559348Y1158070D01*
X561301Y1157812D01*
X563166Y1157179D01*
X564019Y1156687D01*
X564019Y1156687D01*
X581340Y1146687D01*
X531340Y1060084D01*
D02*
G37*
M02*
